<svg xmlns="http://www.w3.org/2000/svg" viewBox="0 0 250.09 90.51"><defs><style>.cls-1{fill:#fff;}</style></defs><title>divider2</title><g id="Layer_2" data-name="Layer 2"><g id="Layer_1-2" data-name="Layer 1"><path class="cls-1" d="M20.86,29.3l-.08,0Z" transform="translate(0 0)"/><path class="cls-1" d="M225.88,34.38a.27.27,0,0,1-.08-.07Z" transform="translate(0 0)"/><path class="cls-1" d="M208.08,47.85h0Z" transform="translate(0 0)"/><polygon class="cls-1" points="225.83 52.65 225.83 52.65 225.83 52.66 225.83 52.65"/><path class="cls-1" d="M199.79,43h0Z" transform="translate(0 0)"/><path class="cls-1" d="M179.21,55.47Z" transform="translate(0 0)"/><polygon class="cls-1" points="155.71 17.48 155.71 17.48 155.71 17.48 155.71 17.48"/><path class="cls-1" d="M155.71,17.47h0Z" transform="translate(0 0)"/><polygon class="cls-1" points="154.42 25.02 154.43 25.01 154.42 25.02 154.42 25.02"/><path class="cls-1" d="M41.31,59.85v0Z" transform="translate(0 0)"/><path class="cls-1" d="M59.41,26.51l-.08.09Z" transform="translate(0 0)"/><path class="cls-1" d="M236.82,17.77a.12.12,0,0,0,.05-.05A.12.12,0,0,1,236.82,17.77Z" transform="translate(0 0)"/><path class="cls-1" d="M248.56,14.07l.06,0Z" transform="translate(0 0)"/><path class="cls-1" d="M234.08,22.66h0Z" transform="translate(0 0)"/><path class="cls-1" d="M247.46,15l0,0,.08.08Z" transform="translate(0 0)"/><path class="cls-1" d="M235,38.2l-.25.07Z" transform="translate(0 0)"/><path class="cls-1" d="M237.82,35.35a.29.29,0,0,0,0,.09A.29.29,0,0,1,237.82,35.35Z" transform="translate(0 0)"/><path class="cls-1" d="M232.87,29.16h0l.13,0Z" transform="translate(0 0)"/><path class="cls-1" d="M229.73,30.35h0Z" transform="translate(0 0)"/><path class="cls-1" d="M232.78,29.14h0Z" transform="translate(0 0)"/><path class="cls-1" d="M232.7,29.12l.2,0Z" transform="translate(0 0)"/><path class="cls-1" d="M215.64,26.12l-.08-.15Z" transform="translate(0 0)"/><path class="cls-1" d="M221.67,16v0h0c0-.05,0-.1,0-.14V16h0Z" transform="translate(0 0)"/><path class="cls-1" d="M221.67,16.2v0Z" transform="translate(0 0)"/><path class="cls-1" d="M218.65,24.72l0,0Z" transform="translate(0 0)"/><path class="cls-1" d="M191.06,40.31h0Z" transform="translate(0 0)"/><path class="cls-1" d="M210.12,44.82h0Z" transform="translate(0 0)"/><path class="cls-1" d="M201.58,46.54l0,.05h0Z" transform="translate(0 0)"/><path class="cls-1" d="M175.15,51.56h0Z" transform="translate(0 0)"/><path class="cls-1" d="M176.19,53h0Z" transform="translate(0 0)"/><path class="cls-1" d="M175.38,52.66l-.06,0Z" transform="translate(0 0)"/><path class="cls-1" d="M168.73,50h0Z" transform="translate(0 0)"/><path class="cls-1" d="M168.7,49.92h0l.08.05Z" transform="translate(0 0)"/><path class="cls-1" d="M168.75,50h0Z" transform="translate(0 0)"/><path class="cls-1" d="M168.77,50l0,0Z" transform="translate(0 0)"/><path class="cls-1" d="M168.46,60.64l0-.17Z" transform="translate(0 0)"/><path class="cls-1" d="M173.78,63.3l0,.07Z" transform="translate(0 0)"/><path class="cls-1" d="M169.69,51.41v0Z" transform="translate(0 0)"/><polygon class="cls-1" points="168.69 49.91 168.69 49.91 168.69 49.92 168.7 49.92 168.69 49.91"/><path class="cls-1" d="M191.23,26.76l-.17.08Z" transform="translate(0 0)"/><polygon class="cls-1" points="193.74 22.47 193.74 22.47 193.74 22.47 193.74 22.47"/><path class="cls-1" d="M180.74,32.35v0Z" transform="translate(0 0)"/><path class="cls-1" d="M172.89,25.41Z" transform="translate(0 0)"/><path class="cls-1" d="M179.49,29.37a.3.3,0,0,1,0,.08A.3.3,0,0,0,179.49,29.37Z" transform="translate(0 0)"/><path class="cls-1" d="M180.22,20.49a.71.71,0,0,0,.08.15Z" transform="translate(0 0)"/><path class="cls-1" d="M180.77,32.5a.44.44,0,0,0,0,.1Z" transform="translate(0 0)"/><path class="cls-1" d="M145.54,20l0,0h0Z" transform="translate(0 0)"/><path class="cls-1" d="M143.41,29.62l0,0Z" transform="translate(0 0)"/><path class="cls-1" d="M133,37.44l0,0,.07,0Z" transform="translate(0 0)"/><path class="cls-1" d="M125.9,41.93l-.09,0Z" transform="translate(0 0)"/><path class="cls-1" d="M128.6,31.23l.1-.11Z" transform="translate(0 0)"/><path class="cls-1" d="M132.44,25.46a0,0,0,0,1,0,0Z" transform="translate(0 0)"/><path class="cls-1" d="M127.29,32.32a0,0,0,0,1,0,0Z" transform="translate(0 0)"/><path class="cls-1" d="M133.64,23.64v0Z" transform="translate(0 0)"/><path class="cls-1" d="M129.17,30.66h0Z" transform="translate(0 0)"/><path class="cls-1" d="M129.1,30.73a.23.23,0,0,1,.07-.07A.23.23,0,0,0,129.1,30.73Z" transform="translate(0 0)"/><path class="cls-1" d="M132.47,25.6h0Z" transform="translate(0 0)"/><path class="cls-1" d="M132.45,25.53s0,0,0-.07Z" transform="translate(0 0)"/><path class="cls-1" d="M39.72,34.37h0Z" transform="translate(0 0)"/><path class="cls-1" d="M104.58,7.58h0l0,0Z" transform="translate(0 0)"/><path class="cls-1" d="M39.92,34.35l-.16,0Z" transform="translate(0 0)"/><path class="cls-1" d="M102.94,8.84h0l0,.05Z" transform="translate(0 0)"/><path class="cls-1" d="M40,34.34l.15,0Z" transform="translate(0 0)"/><path class="cls-1" d="M104.55,7.5l.06.13Z" transform="translate(0 0)"/><path class="cls-1" d="M104.57,7.56v0Z" transform="translate(0 0)"/><path class="cls-1" d="M95,2.34h0Z" transform="translate(0 0)"/><path class="cls-1" d="M86.28,7.7l.14-.19Z" transform="translate(0 0)"/><path class="cls-1" d="M51.3,34.51h0Z" transform="translate(0 0)"/><path class="cls-1" d="M56.82,7.13l-.06.18Z" transform="translate(0 0)"/><path class="cls-1" d="M56.76,7.31s0,.08,0,.12Z" transform="translate(0 0)"/><path class="cls-1" d="M56.71,7.45v0Z" transform="translate(0 0)"/><path class="cls-1" d="M63.82,21.49l-.1.05Z" transform="translate(0 0)"/><path class="cls-1" d="M67.94,2.41h0Z" transform="translate(0 0)"/><path class="cls-1" d="M72.56,10.22a0,0,0,0,0,0,0Z" transform="translate(0 0)"/><path class="cls-1" d="M73.36,30.76l.13,0Z" transform="translate(0 0)"/><path class="cls-1" d="M40.34,50.88l.1.08Z" transform="translate(0 0)"/><path class="cls-1" d="M38.69,49.41l0,0Z" transform="translate(0 0)"/><path class="cls-1" d="M52.23,68.65h0Z" transform="translate(0 0)"/><path class="cls-1" d="M23.13,37.34s0,0,0,.07S23.14,37.36,23.13,37.34Z" transform="translate(0 0)"/><path class="cls-1" d="M131.29,72.93l.13.06Z" transform="translate(0 0)"/><path class="cls-1" d="M99.84,57.91l-.15-.12Z" transform="translate(0 0)"/><path class="cls-1" d="M148.35,88.59c2.38-.64,3.82-2.75,4.5-5v0c.55-8.1-10-9.74-16.13-8.71l.18,0c-1,0-1.87-.69-2.81-.57-1.09-.51-2.11-1.18-3.26-1.61l.14.06c-2.15-.74-4.34-1.37-6.44-2.28l.15.06-.4-.17.1,0a63.26,63.26,0,0,1-8.73-4.7c.75-.18,1.51-.24,2.25-.49,4.72-.19,9.47,3.45,14.21,1.4,2.67-1.56,4.08-5.51,1.34-7.7-3.49-3.24-9-1.49-12.11,1.37-1.4,1.62-2.35,3.47-4.65,3.9l.14-.06a12.42,12.42,0,0,1-2.3.69h0l-.13,0h.07a2.43,2.43,0,0,1-.27,0c-9-4.73-16.83-11.29-24.32-18.14,22.86,2.69,45.92,3.72,68.78.05.69.38,1.57.23,2.32.49l-.22,0c2.53.8,5.1,1.51,7.6,2.41a.78.78,0,0,0,.31.29h0l.12.06-.09,0,0,0h0l.1.08-.05,0a4.75,4.75,0,0,1,.93,1.44v0s0,.07,0,.11l0-.05a24.64,24.64,0,0,1,.9,3.7c-8.06,13.13,8.81,13.08,2.1.84-1.95-1.11-1.25-3.59-2.1-5.44,1.48.69,3,1.31,4.48,2l-.11-.06.32.15h0l0,0h0l.88.4-.08,0,.11.06,0,0c.36.2.73.4,1.1.58h0l.06,0h0a8.46,8.46,0,0,1,1.87,1.07,3,3,0,0,1,0,.85v0c-.93,5.76,5.07,12.42,10.84,9.27,5.24-3.85,1.08-10.33-4.24-11.28-8.48.57-15.21-4.74-23-7.33,9-.84,17.8-4.66,26.78-4.67l-.08,0,.43.1-.09,0,1.23.32-.11,0c3.59,1.33,7.62,2.32,10.64,4.68,0,0,0,0,0,0l.06.1h0c.33.76.8,1.47,1.18,2.19v0a3.8,3.8,0,0,1,.06.58v0c0,.75-.11,1.5-.09,2.25h0c.93,13.92,12.33,5.28,1.94-2.18l.09.08c-.28-.27-.53-.58-.82-.84a.72.72,0,0,0-.46-.5,6.09,6.09,0,0,1-.8-1.46c2.69,1.16,5.26,2.64,8.22,3h0c1.38.34,2.3,1.66,3.39,2.52l-.12-.11c9.65,10.77,19.62-1,8.18-4.27-4.8-1-9.61,2.34-14.27,0l.09,0-.13-.06h0c-2-.92-4-1.94-6.16-2.68l.06,0c-.69-.3-1.26-.8-1.92-1.15a7,7,0,0,0,2.12-.57c14.76,5.67,17.45-7.39,8-5.89-3.9.92-6.09,5.55-10.37,5.42h0c-3.12,0-5.66-2.14-8.7-2.69h0l-.15,0,.07,0-.07,0c9.16-2.32,18.31-5,26.92-8.86,1.6-.18,3.31-.44,4.94-.54a.58.58,0,0,0,.54.43c15.2,19.86,24.3-8.94-2.54-1.3a103.67,103.67,0,0,0,13.09-7.35c21.53,4.79,18.62-13.39,8.44-9.13-3.25,1.56-5.45,4.5-8,6.9a113.26,113.26,0,0,1-18.51,10.11,22,22,0,0,1,2.29-5h0c1.66-2.92,3.45-6.06,3.58-9.5V16c-1.1-14.67-15.19-5.62-8.48,5.84l0-.07c.28.6.58,1.16.91,1.73v0c.55,1,1.29,2,1.78,3.06l-.06.1.06-.1h0a38.66,38.66,0,0,0-2.71,5.13,210.44,210.44,0,0,1-32.21,9.15c2.52-3.95,3.8-8.77,6.75-12.42,2.52-1.43,5.65-2.11,7.12-4.9a.86.86,0,0,0-.07.1c6.47-11.13-7.58-16-7.48-1.76,0-.05,0-.11,0-.16a35.65,35.65,0,0,0-.41,5.83,8.81,8.81,0,0,0-1.35,2,.47.47,0,0,0,.07-.12l-.15.27a.21.21,0,0,1,0-.06,45.17,45.17,0,0,0-2.77,5.06l0,0c-.1.15-.19.31-.29.47a10.87,10.87,0,0,0-2.12-6.11.6.6,0,0,0-.16-.63c4.94-14.83-15.44-14.51-7.23-2.89l0,0,.1.11-.07-.08c1.69,2,4.45,2.52,6.57,3.9l0,.06h0l.06.1,0,0c.2.44.52.81.74,1.25v0a8.44,8.44,0,0,1,.47,1.63v0l0,.13a.14.14,0,0,1,0-.06s0,.06,0,.1h0s0,.08,0,.13v0c0,.11.05.22.07.34l0-.14,0,.19v-.08c.87,3.31-.26,7.16-3.52,8.64h0l.1-.09,0,0,.06-.05A221.93,221.93,0,0,1,117,47c1.39-.91,3-1.5,4.31-2.51l-.09.06.61-.42-.09.07c3.77-2.21,7.68-4.13,11.2-6.76h0a68,68,0,0,0,6.91-4.85l-.07.07q.44-.44.84-.87l-.06.07a19.77,19.77,0,0,1,2.88-2.28h0l.08-.05h0l.05,0h0a5.56,5.56,0,0,1,1.2-.37l-.09,0a6.14,6.14,0,0,1,1.7-.25.33.33,0,0,1-.1,0c21.37-1.86,9.1-24.13-.66-9h0a1.28,1.28,0,0,1-.11.2v0a21.61,21.61,0,0,0-2.31,6.43l0-.05,0,.11s0-.07,0-.1c-.06.23-.12.46-.17.69l0-.13c0,.06,0,.13,0,.19l0-.13a4.12,4.12,0,0,1-.69,1.84l.06-.09c-5.33,5.24-12.21,8.83-18.59,12.68a87.1,87.1,0,0,0,5-8.82c1.67-2,4.57-3,5.14-5.79.82-8.82-6.8-5-6.34,1.48v0s0,.08,0,.12v0a9.86,9.86,0,0,0-.12,3.16s0-.07,0-.1a2.31,2.31,0,0,1-.06.69h0a.31.31,0,0,1,0,.08.09.09,0,0,0,0,0,33.61,33.61,0,0,1-2.42,5.2h0c-2.16,4.17-5.65,7.66-10.42,8.47h0C91,46.76,66.81,41.8,44,35.85c2.45-.38,4.86-1,7.32-1.34h0l.24,0h-.1a57.76,57.76,0,0,0,12.46-2.72c1.16.15,2.36,0,3.54,0h0q1.55.08,3.09.12h-.12c.88,0,1.76.13,2.64.13a.5.5,0,0,0,.53.24c14.1,14.32,16.08-11.8.23-1.43a16.93,16.93,0,0,0-5.68-.49c4.47-1.23,8.22-4.23,12.72-5.41l0,0a6.82,6.82,0,0,1,2.21-.35l-.18,0a4.71,4.71,0,0,1,.84,0l-.2,0c9.56,2.33,24.51-5.94,21.21-17h0v0h0a10,10,0,0,0-3.16-3.8l.21.16c-5-3.72-12.33-1-15.49,3.86l0,0c-3,4.31-5.11,9.76-4.46,15.08-9.07,3.7-18,8.05-27.81,9.41,2.06-1.39,3.56-3.48,5.13-5.38v0l.07-.09h0c1.21-1.39,2.25-2.89,3.4-4.33a.79.79,0,0,0,.54-.6c5.53-4.29,14.88-14.44,6.87-20.52l0,0c-12.7-7-18.31,13.35-8.94,20.22-2.71,4.4-6.26,9.37-11.21,11.19h.1l-.7.1h0c-3.15.27-6.22,1-9.34,1.42H40c-6.46-.26-12.83-3.37-19.12-5l.11,0-.28-.1.09,0C17.69,29.12-.75,18,0,23.07c7.17,4.85,19.47,5,23.11,14.27a.64.64,0,0,0,0-.07l.05.17v0h0v0a33.76,33.76,0,0,1,.75,5.92h0c0,.19,0,.38,0,.58a1.34,1.34,0,0,1,0-.2,6.23,6.23,0,0,1-.21,1.55h0l0,.14v0a4.85,4.85,0,0,1-.33.82,2.33,2.33,0,0,1-1.23.32h0a7.88,7.88,0,0,1-1.19,0H21c-7.35-1.27-14,9.72-6.15,13.59,7.42,2.58,11.24-5.68,10.2-11.92.36-3.51,1.25-7-.31-10.46,5.84,5.66,11.35,11.69,17,17.51h0l-.14-.12.14.12c-2.72,9.86,4.46,20,14.74,14,4.07-3.85,1.88-10.42-2.6-13-3.3-1.92-7.32-2-11-2.82l-.1-.08.09.08h0l-.27-.23.13.1-.11-.09,0,0c-1.11-1.11-2.15-2.3-3.37-3.3l0,0-.66-.58.08.07-.16-.15,0,0c-5.37-5.63-10.92-11.07-16-17C43.18,38.43,64,44,85.36,46.22c4.31,2.57,7.87,6.1,11.65,9.36,2.19,2.06,5.23,3.26,5.8,6.49l-.06-.15.15.38-.06-.16c0,.1.07.19.11.28l0-.07a48.85,48.85,0,0,0,1.81,5,1.07,1.07,0,0,1-.07-.19c1,2.56,2.13,5,3.16,7.57-6.08,3.53-5.87,16.08,2.59,15.77,8.13-1.54,5.7-12.87-.66-15.13,0-.45-.55-.65-.63-1.1l0,.08c-.08-.2-.17-.39-.24-.58a1.12,1.12,0,0,0,0,.13c-1.08-2.84-2.2-5.61-3.36-8.42,0,.07.05.13.07.19-.08-.2-.15-.41-.24-.61a1.42,1.42,0,0,1,.08.18c-.61-1.58-1.21-3.15-1.9-4.71v0a1.21,1.21,0,0,1-.05-.14c8.66,5.1,17.21,10.82,26.92,13.73h0A15.2,15.2,0,0,1,134,75.48h0C136.56,81.29,140.56,90.21,148.35,88.59Zm97.69-74a4.68,4.68,0,0,1,.73-.21.76.76,0,0,1,.28.2l0,0,.11.11,0,0,.16.15-.13-.12.28.27,0,0,.13.12,0,0c.11.11.22.23.32.35A42.25,42.25,0,0,1,236.42,20,83.26,83.26,0,0,1,246,14.61Zm2.23,1.77a4.61,4.61,0,0,1,.2,1.38c-.25.15-.49.32-.73.49h0l-.31.22.07,0c-3,1.8-6.8,1.88-10.23,2.06A39.63,39.63,0,0,0,248.13,16c.06.19.14.37.2.56Zm-11.9,5a5.56,5.56,0,0,0-.73-.12c4.16-.25,8.86,0,12.47-2.4h0l.11-.08c-1.35,2.41-4.48,3.15-7.06,3.15h.1A17.1,17.1,0,0,1,236.37,21.36Zm2.24-3.76c1.84-1.8,4.12-3.61,6.84-3.48-2.58,1.43-5.39,2.47-7.69,4.35A11.63,11.63,0,0,1,238.61,17.6ZM175,25.71a5.52,5.52,0,0,1-2.45-6.45,18.17,18.17,0,0,0,4.26,7.41A10.11,10.11,0,0,1,175,25.71ZM177.52,19a5.47,5.47,0,0,1,2,4.05V23a31.18,31.18,0,0,1-.29,3.2c-.1-.31-.2-.62-.29-.93l0,.08a14.61,14.61,0,0,0-2-5.53h0a4,4,0,0,0-1.36-1.53A2.8,2.8,0,0,1,177.52,19ZM176,24.77a20.22,20.22,0,0,1-2.94-5.94,2.3,2.3,0,0,1,.94-.39h0c.73-.2,1.31.48,1.84.88h0l.06.06,0,0a4.39,4.39,0,0,1,.47.66h0l0,.07h0l.58,1h0l0,.07v0a6.89,6.89,0,0,1,.69,1.71s0-.07,0-.09c.28,1,.45,1.95.7,2.92v-.05c.17.67.44,1.32.58,2A9.22,9.22,0,0,1,176,24.77Zm-2.94-5.94h0v0Zm-1,44.15a4,4,0,0,1-.55.54,45.94,45.94,0,0,0-.36-7C172.68,58.2,173.42,61,172.13,63Zm-2,.22c-1.22-1.74,0-4,.53-5.75.12,2.06.26,4.11.22,6.18v.07A1,1,0,0,1,170.16,63.2Zm1.51-8,0,0Zm0,0ZM187,57.76a17,17,0,0,1,3.57,3.14,3.81,3.81,0,0,1-.57,1.38c-.49-.3-1-.56-1.46-.9l.07,0a60.71,60.71,0,0,1-8-6.94,1.23,1.23,0,0,0,0-.19A37.68,37.68,0,0,1,187,57.76Zm-2.49,5.32a2.88,2.88,0,0,1-.56-.34l.15.13A11.7,11.7,0,0,1,182,60.51l.05.07a10.57,10.57,0,0,1-1.08-2.4h0c-.06-.18-.11-.37-.16-.56a17.18,17.18,0,0,0,5.43,5.91A3.84,3.84,0,0,1,184.5,63.08Zm-3.87-7.56a53,53,0,0,0,8.87,7.28,3.88,3.88,0,0,1-2,.84C184.66,61.54,181.63,59,180.63,55.52Zm9.66,2.57-.08-.11Zm-6.66-3.51A21,21,0,0,1,188,56a.19.19,0,0,1-.08,0c1.43.82,3,2.21,2.76,4-2.23-2.4-5.17-4-8-5.52A3.67,3.67,0,0,1,183.63,54.58Zm29.88-15.23a1.21,1.21,0,0,1,.4.41,40.21,40.21,0,0,0-8.65,2.33h0l-.09,0h0l-.79.26C207.26,40.92,210,38,213.51,39.35Zm.69,1.21a2.88,2.88,0,0,1-.21.9,15.58,15.58,0,0,1-3.36.83h.09c-1.42.1-2.85.09-4.28.2l.33-.13-.1,0a47.76,47.76,0,0,1,7.51-2C214.18,40.46,214.2,40.51,214.2,40.56Zm-1.53,2.25a5.06,5.06,0,0,1-2.7.66H210a20.1,20.1,0,0,1-3.79-.28c2.29-.25,4.69.11,6.88-.74Zm-6.14,10.33v0Zm0,0c.78,1.25,1.63,2.77,1.29,4.28-.3-2.22-1.72-4-2.6-6A14.1,14.1,0,0,1,206.51,53.1Zm-2.21,1.7a14.94,14.94,0,0,1-.27-3.53v.08c0-.07,0-.15,0-.23a.34.34,0,0,1,0,.09c0-.12,0-.24,0-.36,1.25,2.22,2.71,4.45,3.13,7a.66.66,0,0,1-.72.09h0C205.21,57.53,204.66,56,204.3,54.8Zm17.14-3.49h0l2.76.53-.09,0,.61.11-.09,0a11.09,11.09,0,0,1,1.1.28c0,.16.08.31.11.46a.13.13,0,0,1,0-.06l0,.16a.29.29,0,0,1,0-.09,3.15,3.15,0,0,1,0,.92,17.7,17.7,0,0,1-7.59-1.76h0l-2.49-1.28c1.33.07,2.66.27,4,.46h-.09Zm-1.57,3a13,13,0,0,1-4-2.43h0c-.55-.49-1.12-1-1.72-1.43.6.31,1.18.66,1.79.94h0l0,0h0a20.16,20.16,0,0,0,9.39,2.85c-1,1.22-2.92.64-4.28.4h0C220.71,54.59,220.29,54.46,219.87,54.34Zm5.11-3.7a4.87,4.87,0,0,1,.46.75,11.7,11.7,0,0,0-1.15-.23l.09,0-.48-.09.09,0c-1.31-.26-2.62-.51-3.94-.73h.09c-1.32-.23-2.66-.41-4-.51,1.24-.13,2.46-.37,3.7-.43h-.24l.39,0h-.18C221.55,49.42,223.63,49.45,225,50.64Zm-1-20.23Zm5.64-.06h.17c2.06,0,4.95.44,5.95,2.47-3.21-.5-6.3-1.59-9.5-2.2,1.14-.12,2.3-.2,3.44-.27Zm6.36,4.52c0,.05,0,.11-.07.17a8.73,8.73,0,0,1-5.09-1.28h0l-.65-.3h0c-1.45-.78-2.88-1.56-4.38-2.24,3.41.63,6.71,1.83,10.15,2.32A2.37,2.37,0,0,1,235.94,34.87Zm-8.49-1,0,0a19.32,19.32,0,0,1-1.7-1.91c.49.26,1,.46,1.51.69l-.06,0c1.06.52,2,1.18,3.12,1.65h0c1.55.74,3.12,1.57,4.89,1.44-2.16,2-5.73.17-7.49-1.6l0,0ZM216.2,22.32c0-.19,0-.37-.08-.56a0,0,0,0,1,0,0c-.19-1-.18-1.95-.32-2.91v0a33.68,33.68,0,0,1-.07-4.92v0c0-.08,0-.16,0-.24h0l.16-1.31v.09a9.81,9.81,0,0,1,.64-2.49.8.8,0,0,1,.55,0l-.18-.06c.28.09.57.14.85.26a9.25,9.25,0,0,1,.44,5.79V16c-.06.4-.1.8-.14,1.2h0a.28.28,0,0,0,0,.09v0c-.35,2.17-1.08,4.24-1.61,6.35-.06-.45-.24-.88-.29-1.33A.25.25,0,0,1,216.2,22.32ZM216.93,10Zm2.54,2.39a8.26,8.26,0,0,1,.43,3.88h0a14.93,14.93,0,0,1-.6,2.79l.07-.22c-.66,2-1.1,4.26-2.38,6v-.19a.13.13,0,0,1,0,.06s0-.06,0-.09v0c0-.27.1-.54.13-.82v0c.64-2.62,1.61-5.18,1.8-7.89v0a10.74,10.74,0,0,0,0-4.85A5.57,5.57,0,0,1,219.47,12.4ZM215,10.86a4.65,4.65,0,0,1,.7-.49,9.49,9.49,0,0,0-.54,2.59v-.09c0,.26-.07.53-.1.8v0a35.93,35.93,0,0,0,.37,8.22.24.24,0,0,1,0-.09c0,.17.05.34.08.5h0c.06.44.17.87.25,1.31,0,0,0-.06,0-.09l.05.35a9.87,9.87,0,0,1-1.36-2.69l.05.12C213.18,18.05,212.16,13.53,215,10.86ZM214,23.31l0,.06Zm-24.36.58c.44-2.11.39-4.29.89-6.38l0,.09c.14-.5.26-1,.4-1.52a.14.14,0,0,0,0,.06l.32-1.16v0a.29.29,0,0,0,0-.09v0a.69.69,0,0,1,.05-.13,5.66,5.66,0,0,1,1.88,0c0,.28,0,.56,0,.84v0s0,0,0,0v.07h0a12.25,12.25,0,0,1-3.89,9.85l0,0,0,0h0l-.06.06A9,9,0,0,0,189.61,23.89Zm5-7.26a9,9,0,0,1-.83,5.84l0-.06-.1.15.06-.09-.44.63,0,0A10.56,10.56,0,0,1,190,25.77a12.44,12.44,0,0,0,1.94-2.46h0C193.63,21,194,18,193.83,15.19A2,2,0,0,1,194.57,16.63ZM188.7,19.1c.1-.5.2-1,.32-1.51v0A4.39,4.39,0,0,1,190.45,15c0,.16-.08.33-.13.49v0c-.15.54-.28,1.08-.43,1.61h0c-.89,3.21-.32,6.84-2.06,9.81l-.06,0a29.31,29.31,0,0,0,.74-6.24.41.41,0,0,0,0,.11A9.7,9.7,0,0,1,188.7,19.1Zm-42.23,2.13,0,0Zm-1.94,4.94a34.06,34.06,0,0,1,2-5.07l0,0,.12-.22-.09.17c1.38-2.75,4.37-5.51,7.63-4.63a57.27,57.27,0,0,0-6.12,5.95l.06-.07c-1.32,1.48-2.55,3-3.86,4.52A4.48,4.48,0,0,1,144.53,26.17Zm12-7.75a4.08,4.08,0,0,1,0,4h0a1.71,1.71,0,0,0-.13.23l.06-.11a8.62,8.62,0,0,1-2,2.46l.09-.06-.1.07h0a14.28,14.28,0,0,1-8.78,2.62c3.93-2.71,8.45-5.11,10.61-9.6A2.55,2.55,0,0,1,156.54,18.42ZM148.44,23c2.07-2.09,4-4.47,6.38-6.15q.45.29.87.6l-.06-.05.08.07h0l0,0a16.3,16.3,0,0,1-2.49,3.62l.06-.07c-2.53,2.76-6,4.31-8.86,6.68h0c1.33-1.62,2.69-3.22,4.05-4.8Zm-16.95,2.81A9.84,9.84,0,0,0,132,23.9c.4.5.31,1.16.5,1.74l0-.16c.46,2.42-1.82,3.87-3.37,5.28l0,0-.45.44.11-.1a4.59,4.59,0,0,0-.37.39C129.29,29.51,130.68,27.81,131.49,25.82Zm-.14-2.29c-.26,2.44-1.81,4.41-3,6.48C128.71,27.78,128.56,24.09,131.35,23.53ZM23.22,46.3h0Zm0,0h0ZM21.46,57.11A5.54,5.54,0,0,1,19,58.51c2.31-2.45,3.62-5.69,4.65-8.86C23.47,52.22,23.24,55.11,21.46,57.11Zm-7.17.51a6,6,0,0,1-.41-.58c1.33-3.8,3.69-8.89,8.36-8.91a35.24,35.24,0,0,0-6.7,9.93h0c0,.09-.08.17-.13.26A3.81,3.81,0,0,1,14.29,57.62Zm-1.22-3.11a6.34,6.34,0,0,1,5.72-6.07c-2.79,1.68-4.18,4.82-5.36,7.72A4.22,4.22,0,0,1,13.07,54.51ZM22,48.44l0,0Zm-5.91,10.1a33.06,33.06,0,0,1,5.89-9l0,0c.45-.51.87-1,1.34-1.52a.29.29,0,0,0,.22-.12c-1.16,3.88-2.57,8-5.64,10.8A6.35,6.35,0,0,1,16.06,58.54Zm7.26-12.39a.21.21,0,0,1,0-.06l0,.06ZM49.47,56.71c3,.82,6.34,2.87,7,6.12a67.54,67.54,0,0,0-9.9-7,9.26,9.26,0,0,0,1,.25l-.12,0A14.93,14.93,0,0,1,49.47,56.71Zm6.19,10,0,0a54.58,54.58,0,0,1-4.89-4.09l0,0c-2.34-2.36-4.42-4.94-6.64-7.41a3.26,3.26,0,0,1,.68.32h0c4.1,2.51,8.37,5,11.81,8.36A4.79,4.79,0,0,1,55.66,66.74Zm-11-3.21a9.69,9.69,0,0,1-.68-5c1.56,3.84,3.74,7.56,7.07,10.12a7.1,7.1,0,0,1-6.48-5.36Zm10.55,3.91a9.91,9.91,0,0,1-.85.59l.21-.14a4.88,4.88,0,0,1-2.35.76h0a.33.33,0,0,0-.1,0,22.49,22.49,0,0,1-5.49-6.25h0a.22.22,0,0,0-.05-.08l0,0a48.16,48.16,0,0,1-2.51-5.61c0-.15,0-.31,0-.47,3.41,4,6.86,8,11.19,11.09ZM85,13.15A18,18,0,0,1,87,9.55l-.14.17c1.84-2.59,4.35-5.11,7.66-5.45C89.49,9,85.06,14.6,83.14,21.32,83.22,18.54,84.26,15.81,85,13.15Zm4.62,3.15c1.15-1.1,2.26-2.25,3.42-3.35L93,13l.56-.53v0c2.37-2.23,4.88-4.31,7.09-6.72a10.07,10.07,0,0,1,2.29,3.06v0L103,9,103,8.89c0,1.09-.9,2.16-1.36,3.16l.05-.08a10.5,10.5,0,0,1-1.85,2.3l.07-.06a17.83,17.83,0,0,1-3,2.28h0l-.08,0h0c-1,.48-1.86,1-2.77,1.58l.08,0c-1.2.69-2.57,1-3.73,1.8l.08,0a38.19,38.19,0,0,1-6,2.19,64.3,64.3,0,0,1,4.35-5h0C89.13,16.8,89.4,16.56,89.66,16.3Zm13.31-7v0Zm-.14,4.12a15.62,15.62,0,0,1-4.53,6l.06-.05a19.47,19.47,0,0,1-13.2,3.63h.06l-1-.1a50.22,50.22,0,0,0,12-5.22l-.08,0,.76-.4-.07,0a14.12,14.12,0,0,0,6.5-7.09A8.94,8.94,0,0,1,102.83,13.4ZM96.42,4.28c1.24.3,2.46.69,3.68,1.08-.72.81-1.51,1.55-2.28,2.31h0c-1.64,1.59-3.4,3.05-5,4.64,0,0,0-.05.06-.06-.88.83-1.73,1.69-2.6,2.54l.05,0L89,16h0l0,0h0a61.12,61.12,0,0,0-5.32,5.94,40.15,40.15,0,0,1,2.63-6.53l0,0a.35.35,0,0,0,0-.08v0A51.32,51.32,0,0,1,95,4.67s0,0-.06.06l.6-.56A2.66,2.66,0,0,1,96.42,4.28ZM59.28,16a10.41,10.41,0,0,1-.74-4.69c0,.06,0,.13,0,.19,0-.27,0-.54,0-.81v.08a10.79,10.79,0,0,1,4-7.69,28,28,0,0,0-1.66,5.87s0-.06,0-.08a24.05,24.05,0,0,0-.3,7.43v-.06A11.86,11.86,0,0,0,61,18.92,15.42,15.42,0,0,1,59.28,16Zm1-10.44a.56.56,0,0,1-.05.08l.14-.22a1.3,1.3,0,0,1-.1.15Zm3.23-3.07a4.3,4.3,0,0,1,1.2-.38h-.07l.39,0H65a16.38,16.38,0,0,1,2.21.13c-.3.55-.56,1.12-.83,1.69l0-.09a61.89,61.89,0,0,0-4.64,15.47,26.6,26.6,0,0,1-.08-10.81s0,.06,0,.09c.27-2.12,1.22-4.06,1.82-6.09Zm1.54-.38.26,0ZM69.86,12c-1.58,2.22-3.49,4.18-5.26,6.24a40.67,40.67,0,0,0,5.83-13C70.76,7.48,71.29,10.06,69.86,12ZM69.2,3c2,2.63-1.3,6.66-2.07,9.49l0-.08a58.73,58.73,0,0,1-4.9,8.06c.16-1.54.7-3,.86-4.57,0,0,0,.06,0,.09a55.24,55.24,0,0,1,3.8-11.64v0c0-.12.11-.23.16-.35a.59.59,0,0,1,0,.08c.27-.57.53-1.14.85-1.69l.06,0-.06,0h0l.18.06-.1,0A6.33,6.33,0,0,1,69.2,3Zm8.34,27.71a6.71,6.71,0,0,1,4.09-.39h0c.4.24.81.48,1.2.76a42.66,42.66,0,0,0-5.54-.12h0l-.61,0Zm.85-.3h0Zm2.11-.27h0ZM76,31.86l-.27-.15c.54-.05,1.09-.08,1.64-.1h0a35.61,35.61,0,0,1,5.93.21,1.62,1.62,0,0,1,.24,1.54C80.93,33.73,78.43,32.73,76,31.86Zm1.51,2.32,0,0-.14-.14Zm5.23.9c-2.35,2-5.16-.66-6.71-2.47,2.32.81,4.71,1.75,7.22,1.47A3.05,3.05,0,0,1,82.76,35.08ZM63.06,21.93l.07-.07Zm83,65h0l-.11,0H146l-.43-.06h0c-4.91-.46-7-5.76-9.36-9.42,2.93,4.06,6.31,7.71,11.1,9.53A4.35,4.35,0,0,1,146,86.91Zm.12,0-.21,0A.76.76,0,0,1,146.16,86.93Zm-7-4.58h0l0,0Zm11.53-.52.3.2s0,0,0,0v0a4,4,0,0,1-.4,2.24c-.67-.33-1.32-.68-2-1.06h0c-4-2.23-8.28-4.06-11.91-7C141.65,77,146.47,79.24,150.71,81.83Zm-1.93,4.61-.45.21a26.78,26.78,0,0,1-7.1-4.25l0,0-.07-.07,0,0c-1.54-1.56-2.75-3.4-4.17-5.06,3.31,2.59,7.12,4.27,10.8,6.22l0,0,.08,0h0c.79.47,1.59.91,2.41,1.33A5.4,5.4,0,0,1,148.78,86.44ZM150.31,80a6.36,6.36,0,0,1,.49,1.1,43.48,43.48,0,0,0-9.22-4.3l.06,0c-.38-.11-.75-.22-1.12-.35C144,76.43,148,77.06,150.31,80ZM129.36,65.22a16.57,16.57,0,0,1-7-.61,48.28,48.28,0,0,0,10-.92A5.12,5.12,0,0,1,129.36,65.22Zm3.37-2.3a47.5,47.5,0,0,1-11.78.95l0,0c3.67-1.54,7.65-2.15,11.54-2.86a1.78,1.78,0,0,1,.35,1.92Zm-2.12-3.46a4,4,0,0,1,1.37.91,80.63,80.63,0,0,0-9.12,2c.35-.26.72-.49,1.08-.74h0C126,60.57,128.19,58.65,130.61,59.46ZM113.37,81.28c.75,1.76,1,3.9-.16,5.53l.15-.18-.15.19a58.39,58.39,0,0,0-3-9.58A13.55,13.55,0,0,1,113.37,81.28Zm-5.08,4.35a24.48,24.48,0,0,1-.18-7.59v.08a5.55,5.55,0,0,1,.11-1.07h0a1.55,1.55,0,0,1,.08-.23,7.54,7.54,0,0,1,.06.83v0h0a41.65,41.65,0,0,0,2.28,10.93,3,3,0,0,1-1.49.06A22.84,22.84,0,0,1,108.29,85.63Zm3.91-.31s0,.06,0,.09v0c.14.69.28,1.38.41,2.08-.41.32-.93.51-1.38.8a15.78,15.78,0,0,1-.88-2.5v0a.19.19,0,0,0,0-.08s0,0,0,0c-.41-2.64-1.16-5.23-1.33-7.91v-.06h0a8.54,8.54,0,0,0-.07-1.34l.21.06a69.23,69.23,0,0,1,3,8.87S112.2,85.34,112.2,85.32ZM107.44,88c-2.62-2.72-2.08-7.2,0-10.1,0,.11,0,.22,0,.33v0a22.6,22.6,0,0,0,.93,10.29A3,3,0,0,1,107.44,88Z" transform="translate(0 0)"/><path class="cls-1" d="M108.84,73.6c0,.06,0,.11.07.17Z" transform="translate(0 0)"/><path class="cls-1" d="M102.6,61.54l0-.1Z" transform="translate(0 0)"/><path class="cls-1" d="M103.45,83l0-.23Z" transform="translate(0 0)"/><path class="cls-1" d="M118.38,63.55l.15,0Z" transform="translate(0 0)"/><path class="cls-1" d="M114.52,64.85h0Z" transform="translate(0 0)"/><path class="cls-1" d="M205.22,42.11l0,0-.06,0Z" transform="translate(0 0)"/><path class="cls-1" d="M170.91,63.64h0a.07.07,0,0,0,0,0Z" transform="translate(0 0)"/><path class="cls-1" d="M147.88,83.57l0,0,0,0Z" transform="translate(0 0)"/><path class="cls-1" d="M141.22,82.39h0l0,0Z" transform="translate(0 0)"/><path class="cls-1" d="M112.21,85.38h0v0Z" transform="translate(0 0)"/><path class="cls-1" d="M110.36,85.76h0v0Z" transform="translate(0 0)"/><path class="cls-1" d="M109,77.8v0Z" transform="translate(0 0)"/><path class="cls-1" d="M108.35,77.68v0Z" transform="translate(0 0)"/><path class="cls-1" d="M46.62,62.39h0l0,0Z" transform="translate(0 0)"/><path class="cls-1" d="M96.89,16.49h0l0,0Z" transform="translate(0 0)"/><path class="cls-1" d="M90.52,15.46a.46.46,0,0,1-.07.07A.46.46,0,0,0,90.52,15.46Z" transform="translate(0 0)"/><path class="cls-1" d="M89,16v0Z" transform="translate(0 0)"/><path class="cls-1" d="M86.31,15.39v0l0,0Z" transform="translate(0 0)"/><path class="cls-1" d="M176.36,20.05l0,0,0,.06Z" transform="translate(0 0)"/><path class="cls-1" d="M175.84,19.34h0l0,0Z" transform="translate(0 0)"/><path class="cls-1" d="M177,21h0l0,0Z" transform="translate(0 0)"/><path class="cls-1" d="M191.18,15v0Z" transform="translate(0 0)"/><polygon class="cls-1" points="216.99 24.67 216.99 24.68 216.99 24.67 216.99 24.67"/><path class="cls-1" d="M218.09,17.18h0v0Z" transform="translate(0 0)"/><path class="cls-1" d="M215.08,13.72v0a.43.43,0,0,0,0,.05Z" transform="translate(0 0)"/></g></g></svg>